<?xml version="1.0" encoding="iso-8859-1"?>
<!-- Generator: Adobe Illustrator 19.0.0, SVG Export Plug-In . SVG Version: 6.00 Build 0)  -->
<svg version="1.1" id="Capa_1" xmlns="http://www.w3.org/2000/svg" xmlns:xlink="http://www.w3.org/1999/xlink" x="0px" y="0px"
	 viewBox="0 0 512 512" style="enable-background:new 0 0 512 512;" xml:space="preserve">
<g>
	<g>
		<path d="M482,393.763V160.272l21.709-10.854C508.792,146.869,512,141.684,512,136s-3.208-10.869-8.291-13.418l-241-121
			c-4.219-2.109-9.199-2.109-13.418,0l-241,121C3.208,125.131,0,130.316,0,136s3.208,10.869,8.291,13.418l241,120
			C251.4,270.473,253.7,271,256,271s4.6-0.527,6.709-1.582L452,175.272v218.491c-17.422,6.213-30,22.707-30,42.237v61
			c0,8.291,6.709,15,15,15h60c8.291,0,15-6.709,15-15v-61C512,416.47,499.422,399.976,482,393.763z M322.709,149.418
			C301.82,159.862,278.91,165.077,256,165.077c-22.91,0-45.82-5.215-66.709-15.659c-7.412-3.706-10.415-12.715-6.709-20.127
			c3.706-7.397,12.715-10.371,20.127-6.709c33.369,16.699,73.213,16.699,106.582,0c7.397-3.662,16.392-0.688,20.127,6.709
			C333.124,136.703,330.121,145.712,322.709,149.418z"/>
	</g>
</g>
<g>
	<g>
		<path d="M276.127,296.254C269.916,299.359,262.958,301,256,301s-13.916-1.641-20.127-4.746L91,223.817V361
			c0,5.918,3.486,11.279,8.877,13.696C102.748,375.971,170.937,406,256,406s154.252-30.029,157.123-31.304
			C418.514,372.279,422,366.918,422,361V223.817L276.127,296.254z"/>
	</g>
</g>
<g>
</g>
<g>
</g>
<g>
</g>
<g>
</g>
<g>
</g>
<g>
</g>
<g>
</g>
<g>
</g>
<g>
</g>
<g>
</g>
<g>
</g>
<g>
</g>
<g>
</g>
<g>
</g>
<g>
</g>
</svg>
